<svg width="188" height="36" viewBox="0 0 188 36" fill="none" xmlns="http://www.w3.org/2000/svg">
<g clip-path="url(#clip0_967_23743)">
<mask id="mask0_967_23743" style="mask-type:luminance" maskUnits="userSpaceOnUse" x="0" y="0" width="188" height="36">
<path d="M187.958 0H0V35.3465H187.958V0Z" fill="white"/>
</mask>
<g mask="url(#mask0_967_23743)">
<path d="M33.526 14.7262C32.632 10.4302 30.1052 6.64902 26.4781 4.17945C22.851 1.70987 18.4068 0.744798 14.0821 1.48759C9.75738 2.23038 5.88991 4.62303 3.29467 8.16133C0.699433 11.6996 -0.420886 16.1072 0.169804 20.4553C0.682872 24.7525 2.80597 28.6954 6.11111 31.4892C8.58902 33.576 11.6135 34.9081 14.8258 35.3276C18.0381 35.7471 21.3033 35.2363 24.234 33.8559C27.1647 32.4754 29.6378 30.2832 31.3601 27.5394C33.0823 24.7955 33.9813 21.6153 33.9504 18.3759C33.9375 17.1478 33.7953 15.9245 33.526 14.7262ZM22.577 27.3727L18.4605 15.9569C17.6118 13.6228 16.2538 13.6228 15.4475 15.9569L11.331 27.3727C9.12421 27.0757 8.02082 25.3781 8.86958 23.2562L15.2353 8.19077C16.1689 5.89913 17.7391 5.89913 18.7152 8.19077L25.0384 23.2562C25.8872 25.3781 24.8262 27.0757 22.577 27.3727Z" fill="#981B26"/>
<path d="M8.87249 21.8556L15.2382 6.74768C16.1718 4.49848 17.742 4.49848 18.7181 6.74768L33.5289 13.2831C32.7729 9.9333 31.0283 6.88771 28.5212 4.54091C26.0279 2.19849 22.87 0.68625 19.482 0.212246C16.0935 -0.311371 12.6259 0.222098 9.55149 1.74001C6.46286 3.23291 3.90203 5.63091 2.20973 8.61495C0.525894 11.6032 -0.213199 15.0314 0.0898238 18.448C0.392847 21.8646 1.72377 25.1092 3.90725 27.7545C6.10098 30.3839 9.02513 32.3038 12.31 33.2714C15.6109 34.2075 19.1184 34.1187 22.3677 33.0168L11.3339 25.9296C9.12711 25.6326 8.02373 23.935 8.87249 21.8556Z" fill="#ED3C69"/>
<path d="M33.9051 16.9756C33.9131 15.7463 33.7706 14.5206 33.4807 13.3259L18.6699 6.74805L25.0356 21.8559C25.8843 23.9354 24.8234 25.6754 22.5742 25.93L18.4577 14.5142C17.6089 12.2225 16.2509 12.2225 15.4446 14.5142L11.3281 25.93L22.362 33.0171C25.7268 31.8941 28.6527 29.7402 30.7246 26.8608C32.7965 23.9815 33.9093 20.5229 33.9051 16.9756Z" fill="#E71D3F"/>
<path d="M25.036 21.8559L18.6703 6.74803C17.7367 4.45638 16.1665 4.45638 15.1904 6.74803L8.82473 21.8559C7.97597 23.9354 9.07936 25.6753 11.3286 25.93L15.445 14.5142C16.2938 12.1801 17.6094 12.1801 18.4581 14.5142L22.5746 25.93C24.8238 25.6329 25.8848 23.9354 25.036 21.8559Z" fill="white"/>
<path d="M54.8285 27.3727C54.8285 26.2269 54.9983 24.6142 55.168 22.9167H55.0831C53.131 26.5664 50.4574 27.8395 47.9536 27.8395C44.3888 27.8395 42.0547 25.0386 42.0547 21.0494C42.0547 14.2594 46.8077 7.04492 56.0592 7.04492C58.1146 7.0465 60.1588 7.3467 62.1278 7.93612L60.0484 18.291C59.4697 21.2832 59.1854 24.325 59.1996 27.3727H54.8285ZM56.7806 10.9492C56.1274 10.7949 55.4572 10.7236 54.7861 10.737C50.415 10.737 47.0199 15.6598 47.0199 20.2007C47.0199 22.2801 47.7838 23.9777 49.8633 23.9777C51.9427 23.9777 54.7861 21.2192 55.7621 16.1691L56.7806 10.9492Z" fill="#6D6F71"/>
<path d="M78.0033 26.6509C76.2006 27.4479 74.2447 27.8391 72.2741 27.7967C67.3089 27.7967 64.2109 24.6138 64.2109 19.8608C64.2109 12.9434 69.4732 7.08699 76.815 7.08699C78.2091 7.08196 79.5915 7.34116 80.889 7.85087L79.7008 11.543C78.7406 11.1154 77.6957 10.9122 76.6452 10.9488C72.1044 10.9488 69.1762 15.1502 69.1762 19.3091C69.1762 22.2798 70.8737 23.9773 73.5473 23.9773C74.998 23.9663 76.4298 23.6481 77.7486 23.0436L78.0033 26.6509Z" fill="#6D6F71"/>
<path d="M95.1483 26.6508C93.3621 27.4525 91.419 27.844 89.4616 27.7966C84.4964 27.7966 81.3984 24.6138 81.3984 19.8607C81.3984 12.9433 86.6607 7.08691 94.0449 7.08691C95.4383 7.08984 96.8192 7.34876 98.119 7.8508L96.8883 11.5429C95.9434 11.1144 94.912 10.911 93.8752 10.9488C89.2919 10.9488 86.4061 15.1501 86.4061 19.309C86.4061 22.2797 88.1036 23.9772 90.7772 23.9772C92.2279 23.9662 93.6598 23.648 94.9786 23.0436L95.1483 26.6508Z" fill="#6D6F71"/>
<path d="M119.08 7.51172L116.491 21.2192C116.024 23.5957 115.727 25.6751 115.472 27.3727H111.228L111.695 23.8928H111.61C109.701 26.4815 107.197 27.8395 104.693 27.8395C102.189 27.8395 99.5156 26.2693 99.5156 22.1952C99.5521 20.9968 99.6941 19.8039 99.94 18.6305L102.062 7.51172H106.815L104.778 18.3758C104.579 19.2684 104.465 20.1778 104.438 21.0919C104.438 22.7469 105.075 23.8928 106.985 23.8928C108.894 23.8928 111.738 21.304 112.544 17.1876L114.326 7.51172H119.08Z" fill="#6D6F71"/>
<path d="M120.734 27.3727L123.068 15.1506C123.578 12.3072 123.875 9.25169 124.087 7.51174H128.203C128.076 8.86975 127.949 10.2278 127.779 11.6707H127.906C129.222 8.99707 131.386 7.04492 134.102 7.04492H135.163L134.23 11.7131H133.296C129.901 11.7131 127.779 15.1506 126.973 19.3944L125.487 27.4151L120.734 27.3727Z" fill="#6D6F71"/>
<path d="M147.555 27.3727C147.555 26.2269 147.725 24.6142 147.895 22.9167H147.81C145.858 26.5664 143.184 27.8395 140.68 27.8395C137.115 27.8395 134.781 25.0386 134.781 21.0494C134.781 14.2594 139.534 7.04493 148.786 7.04493C150.841 7.04348 152.886 7.34374 154.854 7.93612L152.775 18.3334C152.196 21.3114 151.912 24.3391 151.926 27.3727H147.555ZM149.465 10.9492C148.826 10.7924 148.17 10.721 147.513 10.737C143.184 10.737 139.746 15.6598 139.746 20.2007C139.746 22.2801 140.51 23.9777 142.59 23.9777C144.669 23.9777 147.513 21.2192 148.489 16.1691L149.465 10.9492Z" fill="#6D6F71"/>
<path d="M166.572 2.41895L165.638 7.5115H170.094L169.372 11.1612H164.917L163.389 19.1819C163.178 20.1023 163.051 21.0397 163.007 21.9828C163.007 23.0862 163.516 23.8077 164.789 23.8077C165.329 23.8075 165.868 23.7649 166.402 23.6803L165.935 27.3724C164.937 27.7026 163.887 27.8465 162.837 27.7968C159.569 27.7968 158.126 26.0144 158.126 23.7228C158.161 22.4961 158.303 21.2749 158.551 20.0731L160.248 11.2036H157.617L158.296 7.5115H160.927L161.691 3.8194L166.572 2.41895Z" fill="#6D6F71"/>
<path d="M185.497 26.2269C183.301 27.289 180.893 27.8404 178.453 27.8395C172.936 27.8395 170.305 24.4445 170.305 19.6065C170.305 13.5804 174.718 7.04492 181.551 7.04492C185.497 7.04492 187.959 9.29413 187.959 12.6467C187.959 17.7393 182.654 19.3944 174.973 19.2246C174.882 20.1873 175.058 21.1564 175.482 22.0255C176.246 23.3835 177.689 24.0625 179.556 24.0625C181.457 24.0905 183.337 23.6534 185.031 22.7894L185.497 26.2269ZM180.957 10.6097C177.986 10.6097 176.034 13.2409 175.44 15.6598C180.32 15.7023 183.503 15.0657 183.503 12.6467C183.503 11.3736 182.484 10.6097 180.957 10.6097Z" fill="#6D6F71"/>
</g>
</g>
<defs>
<clipPath id="clip0_967_23743">
<rect width="188" height="35.6479" fill="white"/>
</clipPath>
</defs>
</svg>
